<?xml version="1.0" encoding="UTF-8" standalone="no"?>
<svg
   xmlns:dc="http://purl.org/dc/elements/1.1/"
   xmlns:cc="http://creativecommons.org/ns#"
   xmlns:rdf="http://www.w3.org/1999/02/22-rdf-syntax-ns#"
   xmlns:svg="http://www.w3.org/2000/svg"
   xmlns="http://www.w3.org/2000/svg"
   version="1.1"
   id="svg8176"
   viewBox="0 0 199.92914 174.98562"
   height="49.38483mm"
   width="56.424446mm">
  <defs
     id="defs8178" />
  <metadata
     id="metadata8181">
    <rdf:RDF>
      <cc:Work
         rdf:about="">
        <dc:format>image/svg+xml</dc:format>
        <dc:type
           rdf:resource="http://purl.org/dc/dcmitype/StillImage" />
        <dc:title></dc:title>
      </cc:Work>
    </rdf:RDF>
  </metadata>
  <g
     transform="translate(-1665.7497,-299.15511)"
     id="layer1">
    <g
       transform="translate(1083.1914,-524.27165)"
       id="g8147">
      <path
         style="fill:#ffffff;fill-opacity:1"
         d="m 671.0431,993.56686 c -34.06125,-16.4555 -62.85358,-41.0512 -76.40372,-65.2675 -6.78338,-12.1229 -12.11205,-30.91525 -12.08093,-42.60515 0.021,-7.8988 3.15102,-19.66053 7.56896,-28.44227 4.86349,-9.66738 16.12867,-20.96802 26.01004,-26.09193 7.4056,-3.84012 21.69238,-7.73325 28.379,-7.73325 9.43134,0 23.71031,4.36262 33.01221,10.08614 l 5.20113,3.20028 3.65665,-2.21001 c 10.85241,-6.55897 24.93878,-11.07641 34.53869,-11.07641 7.59523,0 18.71841,2.84709 27.5124,7.04207 15.84087,7.55653 30.1136,25.59343 33.1118,41.84443 1.40945,7.6396 1.20067,22.47377 -0.42418,30.138 -5.87086,27.6921 -27.11501,54.6965 -60.22639,76.5565 -11.03384,7.2846 -34.54814,19.4239 -37.58732,19.4046 -1.24759,-0.01 -6.76834,-2.1884 -12.26834,-4.8455 z m 23.41362,-15.7295 c 27.61148,-14.5785 48.10274,-31.8265 60.81471,-51.1893 17.87956,-27.23397 17.62834,-56.02463 -0.64833,-74.3013 -11.88621,-11.8862 -29.23734,-16.6347 -45.4004,-12.42476 -7.92768,2.0649 -12.64917,4.65347 -20.25224,11.10335 l -6.51999,5.53108 -5.90984,-5.47147 c -18.74782,-17.35718 -47.00647,-16.80926 -65.07753,1.2618 -12.07603,12.07603 -16.42921,28.57687 -12.46881,47.26336 6.15828,29.05684 32.21432,57.02104 72.94227,78.28414 5.82849,3.0429 10.89797,5.5325 11.26552,5.5325 0.36754,0 5.43213,-2.5152 11.25464,-5.5894 z"
         id="path7951" />
      <path
         d="m 679.67817,885.31054 c -5.24624,-9.56475 -14.19534,-13.37103 -24.58439,-13.37103 -15.12105,0 -27.15639,10.69705 -27.15639,28.80152 0,18.4121 11.31623,28.8013 27.67155,28.8013 10.49338,0 19.44129,-5.7604 24.37926,-14.5031 l -11.52107,-5.8631 c -2.57315,6.1708 -6.47993,8.0219 -11.4182,8.0219 -8.53825,0 -12.4462,-7.0971 -12.4462,-16.457 0,-9.3614 3.29111,-16.45936 12.4462,-16.45936 2.46796,0 7.40593,1.33801 10.28621,7.50911 l 12.34303,-6.48024"
         style="fill:#ffffff;fill-opacity:1;fill-rule:evenodd;stroke:none"
         id="path8086" />
      <path
         d="m 733.24898,885.31054 c -5.24714,-9.56475 -14.19386,-13.37103 -24.58411,-13.37103 -15.12133,0 -27.15756,10.69705 -27.15756,28.80152 0,18.4121 11.31742,28.8013 27.67155,28.8013 10.49192,0 19.44101,-5.7604 24.37928,-14.5031 l -11.52137,-5.8631 c -2.57198,6.1708 -6.4811,8.0219 -11.41792,8.0219 -8.53706,0 -12.44735,-7.0971 -12.44735,-16.457 0,-9.3614 3.29198,-16.45936 12.44735,-16.45936 2.46796,0 7.40595,1.33801 10.2871,7.50911 l 12.34303,-6.48024"
         style="fill:#ffffff;fill-opacity:1;fill-rule:evenodd;stroke:none"
         id="path8088" />
    </g>
  </g>
</svg>
